<svg width="55" height="44" viewBox="0 0 55 44" fill="none" xmlns="http://www.w3.org/2000/svg">
<path d="M18.04 43.48C14.72 43.48 11.76 42.64 9.16 40.96C6.6 39.24 4.58 36.76 3.1 33.52C1.62 30.28 0.88 26.44 0.88 22C0.88 17.56 1.62 13.72 3.1 10.48C4.58 7.24 6.6 4.78 9.16 3.1C11.76 1.38 14.72 0.52 18.04 0.52C21.32 0.52 24.24 1.38 26.8 3.1C29.4 4.78 31.44 7.24 32.92 10.48C34.4 13.72 35.14 17.56 35.14 22C35.14 26.44 34.4 30.28 32.92 33.52C31.44 36.76 29.4 39.24 26.8 40.96C24.24 42.64 21.32 43.48 18.04 43.48ZM18.04 38.14C21.4 38.14 24.08 36.76 26.08 34C28.12 31.24 29.14 27.24 29.14 22C29.14 16.76 28.12 12.76 26.08 10C24.08 7.24 21.4 5.86 18.04 5.86C14.64 5.86 11.92 7.24 9.88 10C7.88 12.76 6.88 16.76 6.88 22C6.88 27.24 7.88 31.24 9.88 34C11.92 36.76 14.64 38.14 18.04 38.14ZM54.0438 0.999997V43H48.1037V6.22H38.6237V0.999997H54.0438Z" fill="black"/>
</svg>
