<svg width="164" height="44" viewBox="0 0 164 44" fill="none" xmlns="http://www.w3.org/2000/svg">
<path d="M14.5958 30.4669C14.5958 30.4669 13.347 21.575 17.3176 16.3576C17.3176 16.3576 18.4523 18.513 19.3589 19.7617C19.3589 19.7617 19.015 15.1162 19.3589 13.5218C19.3589 13.5218 26.3915 6.94158 40.2323 4.21976C40.2323 4.21976 36.7859 10.6363 35.1271 13.2956C35.1271 13.2956 31.951 13.2955 30.9303 14.7705C30.9303 14.7705 33.426 14.5443 34.5607 14.8845C34.5607 14.8845 31.3846 19.3093 30.5901 19.9898C30.5901 19.9898 28.249 20.5562 27.3203 21.1245L30.0218 21.5787C30.0218 21.5787 23.8389 30.1579 15.6716 32.9938C15.6716 32.9938 14.8404 34.5975 13.884 38.4577L12.468 37.6411C12.468 37.6411 16.6923 23.6201 28.3207 14.2059C28.3225 14.2022 21.4021 17.1245 14.5958 30.4669Z" fill="#212121"/>
<path d="M38.0126 10.4468C40.2636 13.6597 41.5841 17.5714 41.5841 21.7902C41.5841 32.7216 32.7234 41.5822 21.792 41.5822C10.8606 41.5822 2 32.7216 2 21.792C2 10.8625 10.8606 2 21.792 2C25.6633 2 29.2734 3.1108 32.3244 5.03262" stroke="#212121" stroke-width="3" stroke-miterlimit="10" stroke-linecap="round" stroke-linejoin="round"/>
<path d="M37.2034 11.6606C39.1179 14.5682 40.2323 18.0495 40.2323 21.792C40.2323 31.9768 31.9768 40.2323 21.792 40.2323C11.6073 40.2323 3.35172 31.9768 3.35172 21.792C3.35172 11.6073 11.6073 3.35172 21.792 3.35172C25.0693 3.35172 28.146 4.20688 30.8127 5.70388" stroke="#212121" stroke-width="1.5" stroke-miterlimit="10" stroke-linecap="round" stroke-linejoin="round"/>
<path d="M61.996 15.7403C63.2227 15.7353 64.2972 16.0175 65.2195 16.5871C66.1552 17.1566 66.8786 17.987 67.3898 19.0782C67.9008 20.1561 68.1595 21.4484 68.1656 22.9551C68.1717 24.4217 67.9103 25.7228 67.3816 26.8583C66.8663 27.9938 66.1432 28.8767 65.2125 29.5072C64.2817 30.1377 63.223 30.4554 62.0363 30.4602C60.823 30.4652 59.7552 30.1896 58.8329 29.6334C57.9106 29.0638 57.1872 28.2468 56.6629 27.1822C56.1518 26.1177 55.8866 24.8454 55.8672 23.3655L53.3272 23.3759L53.3466 28.0958C53.3487 28.6025 53.3902 28.969 53.4711 29.1953C53.552 29.4217 53.6993 29.5744 53.913 29.6535C54.14 29.7326 54.4935 29.7845 54.9736 29.8092L54.9753 30.2092C54.3618 30.1717 53.515 30.1552 52.435 30.1596C51.2884 30.1643 50.4351 30.1878 49.8753 30.2301L49.8737 29.8301C50.3535 29.8014 50.7 29.7467 50.913 29.6658C51.1393 29.5849 51.292 29.4309 51.3711 29.2039C51.4502 28.9769 51.4887 28.6101 51.4866 28.1035L51.446 18.1835C51.4439 17.6769 51.4024 17.3104 51.3214 17.084C51.2405 16.8577 51.0866 16.705 50.8596 16.6259C50.6459 16.5468 50.299 16.4949 49.8189 16.4702L49.8173 16.0702C50.3774 16.1079 51.2308 16.1244 52.3775 16.1197C53.4442 16.1153 54.2907 16.0919 54.9172 16.0493L54.9189 16.4493C54.439 16.4779 54.0859 16.5327 53.8595 16.6136C53.6465 16.6945 53.5005 16.8484 53.4214 17.0754C53.3424 17.3024 53.3039 17.6693 53.3059 18.1759L53.3256 22.9759L55.8656 22.9655C55.8865 21.552 56.1613 20.2976 56.6902 19.2021C57.219 18.1065 57.9422 17.2569 58.8597 16.6531C59.7906 16.0493 60.836 15.745 61.996 15.7403ZM62.1149 30.0999C62.9282 30.0966 63.6403 29.8003 64.2512 29.2112C64.8755 28.6086 65.352 27.7733 65.681 26.7053C66.01 25.6373 66.1716 24.4166 66.166 23.0433C66.1603 21.6566 65.9686 20.4374 65.591 19.3856C65.2134 18.3338 64.7034 17.5225 64.061 16.9518C63.4187 16.3811 62.7042 16.0974 61.9175 16.1006C61.1042 16.1039 60.3854 16.4069 59.7612 17.0095C59.1503 17.5986 58.6803 18.4272 58.3514 19.4953C58.0224 20.5633 57.8608 21.784 57.8664 23.1573C57.8721 24.5439 58.0637 25.7632 58.4414 26.8149C58.819 27.8667 59.329 28.678 59.9714 29.2487C60.6137 29.8194 61.3282 30.1031 62.1149 30.0999ZM73.4098 24.4136L73.4245 28.0136C73.4266 28.5202 73.4815 28.8867 73.589 29.1129C73.6966 29.3391 73.8839 29.4917 74.1509 29.5706C74.4179 29.6495 74.8515 29.7011 75.4516 29.7253L75.4532 30.1253C74.7597 30.0881 73.7796 30.0721 72.513 30.0773C71.3663 30.082 70.5131 30.1055 69.9533 30.1478L69.9516 29.7478C70.4315 29.7192 70.778 29.6644 70.991 29.5835C71.2173 29.5026 71.37 29.3487 71.4491 29.1217C71.5281 28.8947 71.5666 28.5278 71.5646 28.0212L71.5239 18.1013C71.5218 17.5946 71.4803 17.2281 71.3994 17.0018C71.3185 16.7754 71.1645 16.6227 70.9375 16.5437C70.7239 16.4645 70.377 16.4126 69.8969 16.3879L69.8952 15.9879C70.4554 16.0256 71.2688 16.0423 72.3355 16.0379L74.4954 16.0091C74.7486 15.9947 75.0353 15.9869 75.3553 15.9855C76.9153 15.9792 78.1101 16.3343 78.9397 17.0509C79.7692 17.7541 80.1865 18.7058 80.1914 19.9058C80.1944 20.6391 80.0306 21.3464 79.7001 22.0278C79.3828 22.6958 78.8318 23.258 78.047 23.7146C77.2755 24.1711 76.2431 24.402 74.9498 24.4073L73.4098 24.4136ZM74.8568 16.3676C74.4435 16.3693 74.1304 16.4172 73.9174 16.5114C73.7178 16.6056 73.5785 16.7728 73.4995 17.0132C73.4205 17.2535 73.3819 17.6136 73.3839 18.0936L73.4082 24.0136L74.7481 24.0081C76.0548 24.0028 76.9534 23.6524 77.4439 22.957C77.9476 22.2483 78.1971 21.3073 78.1923 20.134C78.187 18.8406 77.9231 17.8884 77.4006 17.2772C76.8914 16.6659 76.0435 16.3627 74.8568 16.3676ZM95.4559 16.2832C94.976 16.3118 94.6229 16.3666 94.3965 16.4475C94.1835 16.5284 94.0375 16.6823 93.9584 16.9093C93.8794 17.1363 93.8409 17.5031 93.8429 18.0098L93.8836 27.9297C93.8857 28.4364 93.9272 28.8029 94.0081 29.0292C94.089 29.2556 94.2363 29.4083 94.45 29.4874C94.677 29.5665 95.0305 29.6184 95.5106 29.6431L95.5123 30.0431C94.9521 30.0054 94.0987 29.9889 92.952 29.9936C91.8854 29.9979 91.0388 30.0214 90.4123 30.064L90.4107 29.664C90.8906 29.6353 91.237 29.5806 91.45 29.4997C91.6763 29.4188 91.829 29.2648 91.9081 29.0378C91.9872 28.8108 92.0257 28.444 92.0236 27.9373L91.9848 18.4774L85.125 28.2856C85.1399 28.6722 85.1944 28.9653 85.2886 29.165C85.3827 29.3512 85.5365 29.4773 85.7501 29.5431C85.9637 29.6089 86.2973 29.6542 86.7507 29.679L86.7523 30.079C86.1388 30.0415 85.2921 30.025 84.2121 30.0294C83.0655 30.0341 82.2122 30.0576 81.6524 30.0999L81.6507 29.6999C82.1306 29.6712 82.4771 29.6165 82.6901 29.5356C82.9164 29.4547 83.0691 29.3007 83.1482 29.0737C83.2273 28.8467 83.2658 28.4799 83.2637 27.9732L83.223 18.0533C83.221 17.5467 83.1795 17.1802 83.0985 16.9538C83.0176 16.7275 82.8636 16.5748 82.6366 16.4957C82.423 16.4166 82.0761 16.3647 81.596 16.34L81.5944 15.94C82.1545 15.9777 83.0079 15.9942 84.1546 15.9895C85.2212 15.9851 86.0678 15.9617 86.6943 15.9191L86.696 16.3191C86.2161 16.3477 85.863 16.4025 85.6366 16.4834C85.4236 16.5643 85.2776 16.7182 85.1985 16.9452C85.1194 17.1722 85.0809 17.539 85.083 18.0457L85.1218 27.5056L91.9816 17.6974C91.9667 17.3108 91.9122 17.0244 91.8181 16.8381C91.724 16.6385 91.5701 16.5058 91.3565 16.44C91.1429 16.3742 90.8094 16.3289 90.3559 16.3041L90.3543 15.9041C90.9811 15.9415 91.8279 15.958 92.8945 15.9537C94.0412 15.949 94.8944 15.9255 95.4542 15.8832L95.4559 16.2832ZM110.603 16.2211C110.123 16.2498 109.77 16.3045 109.543 16.3855C109.33 16.4663 109.184 16.6203 109.105 16.8473C109.026 17.0743 108.988 17.4411 108.99 17.9477L109.03 27.8677C109.032 28.3743 109.074 28.7408 109.155 28.9672C109.236 29.1935 109.383 29.3462 109.597 29.4254C109.824 29.5044 110.177 29.5563 110.657 29.581L110.659 29.981C110.099 29.9433 109.245 29.9268 108.099 29.9315C107.019 29.9359 106.172 29.9594 105.559 30.0019L105.557 29.6019C106.037 29.5733 106.384 29.5185 106.597 29.4376C106.823 29.3567 106.976 29.2028 107.055 28.9758C107.134 28.7488 107.172 28.3819 107.17 27.8753L107.151 23.0753L100.651 23.102L100.67 27.9019C100.672 28.4086 100.714 28.7751 100.795 29.0014C100.876 29.2278 101.023 29.3805 101.237 29.4596C101.464 29.5387 101.817 29.5906 102.297 29.6153L102.299 30.0153C101.686 29.9778 100.839 29.9612 99.7589 29.9657C98.6122 29.9704 97.759 29.9939 97.1991 30.0362L97.1975 29.6362C97.6774 29.6075 98.0238 29.5528 98.2368 29.4719C98.4632 29.391 98.6159 29.237 98.6949 29.01C98.774 28.783 98.8125 28.4162 98.8104 27.9095L98.7698 17.9896C98.7677 17.483 98.7262 17.1165 98.6453 16.8901C98.5643 16.6638 98.4104 16.5111 98.1834 16.432C97.9697 16.3529 97.6228 16.301 97.1427 16.2763L97.1411 15.8763C97.7013 15.914 98.5547 15.9305 99.7013 15.9258C100.768 15.9214 101.615 15.8979 102.241 15.8554L102.243 16.2554C101.763 16.284 101.41 16.3388 101.183 16.4197C100.97 16.5006 100.824 16.6545 100.745 16.8815C100.666 17.1085 100.628 17.4753 100.63 17.982L100.649 22.702L107.149 22.6753L107.13 17.9554C107.128 17.4487 107.086 17.0822 107.005 16.8559C106.924 16.6295 106.77 16.4768 106.543 16.3978C106.33 16.3186 105.983 16.2667 105.503 16.242L105.501 15.842C106.115 15.8795 106.961 15.896 108.041 15.8916C109.188 15.8869 110.041 15.8634 110.601 15.8211L110.603 16.2211ZM118.945 22.467C120.412 22.661 121.461 23.0834 122.09 23.7341C122.72 24.3715 123.036 25.1436 123.04 26.0502C123.043 26.8102 122.852 27.4844 122.468 28.0726C122.084 28.6608 121.532 29.1231 120.814 29.4594C120.095 29.7823 119.242 29.9458 118.256 29.9499C117.896 29.9514 117.589 29.9459 117.336 29.9336C116.482 29.9105 115.642 29.9006 114.815 29.904C113.722 29.9085 112.896 29.9318 112.336 29.9741L112.334 29.5741C112.814 29.5455 113.16 29.4908 113.373 29.4099C113.6 29.3289 113.752 29.175 113.832 28.948C113.911 28.721 113.949 28.3542 113.947 27.8475L113.906 17.9276C113.904 17.4209 113.863 17.0544 113.782 16.8281C113.701 16.6018 113.547 16.4491 113.32 16.37C113.106 16.2909 112.759 16.2389 112.279 16.2142L112.278 15.8143C112.838 15.852 113.651 15.8686 114.718 15.8643L116.878 15.8354C117.131 15.821 117.418 15.8132 117.738 15.8119C119.098 15.8063 120.139 16.0887 120.861 16.6591C121.597 17.2294 121.967 17.9879 121.971 18.9346C121.974 19.7079 121.73 20.4022 121.239 21.0176C120.762 21.6329 119.997 22.1027 118.945 22.427L118.945 22.467ZM117.239 16.1939C116.826 16.1956 116.513 16.2436 116.3 16.3378C116.1 16.4319 115.961 16.5992 115.882 16.8395C115.803 17.0798 115.764 17.44 115.766 17.92L115.785 22.4399L117.125 22.4344C118.218 22.43 118.977 22.1335 119.401 21.5451C119.839 20.9433 120.056 20.1491 120.051 19.1624C120.047 18.1624 119.824 17.4167 119.382 16.9251C118.94 16.4336 118.226 16.1899 117.239 16.1939ZM117.314 29.4937C119.807 29.4835 121.049 28.3117 121.039 25.9784C121.035 24.9251 120.745 24.1263 120.17 23.582C119.607 23.0376 118.706 22.768 117.466 22.773L115.786 22.7799L115.807 27.8399C115.809 28.3199 115.85 28.6731 115.931 28.8994C116.012 29.1257 116.153 29.2852 116.353 29.3777C116.567 29.4568 116.887 29.4955 117.314 29.4937ZM134.889 27.3217C134.892 28.0817 134.943 28.9348 135.04 29.8811C134.133 29.8448 132.606 29.8311 130.46 29.8399C127.9 29.8504 125.966 29.8783 124.66 29.9236L124.658 29.5236C125.138 29.495 125.485 29.4402 125.698 29.3594C125.924 29.2784 126.077 29.1245 126.156 28.8975C126.235 28.6705 126.273 28.3037 126.271 27.797L126.23 17.8771C126.228 17.3704 126.187 17.0039 126.106 16.7776C126.025 16.5513 125.871 16.3986 125.644 16.3195C125.43 16.2404 125.084 16.1884 124.603 16.1637L124.602 15.7638C125.909 15.7984 127.842 15.8105 130.402 15.8C132.362 15.792 133.755 15.7662 134.582 15.7229C134.492 16.6032 134.449 17.3901 134.451 18.0834C134.454 18.6034 134.475 19.0167 134.516 19.3232L134.056 19.325C133.96 18.4588 133.837 17.8193 133.689 17.4065C133.54 16.9805 133.292 16.6748 132.945 16.4896C132.597 16.291 132.07 16.1932 131.364 16.196L129.704 16.2028C129.224 16.2048 128.87 16.2463 128.644 16.3272C128.431 16.3947 128.285 16.542 128.206 16.769C128.127 16.996 128.088 17.3628 128.09 17.8695L128.11 22.5894L129.43 22.584C129.896 22.5821 130.256 22.474 130.508 22.2596C130.761 22.0319 130.926 21.7712 131.005 21.4776C131.097 21.1705 131.169 20.7902 131.221 20.3367L131.279 19.9364L131.739 19.9345C131.701 20.4947 131.684 21.1214 131.687 21.8148L131.691 22.7748C131.693 23.4548 131.737 24.4013 131.822 25.6142L131.362 25.6161C131.349 25.5229 131.307 25.203 131.238 24.6566C131.169 24.0969 130.981 23.6777 130.673 23.3989C130.379 23.1201 129.965 22.9818 129.431 22.984L128.111 22.9894L128.131 27.7894C128.133 28.2961 128.175 28.6626 128.256 28.8889C128.337 29.1152 128.484 29.268 128.698 29.3471C128.924 29.4128 129.278 29.4447 129.758 29.4427L131.218 29.4368C132.045 29.4334 132.671 29.3241 133.097 29.1091C133.536 28.8806 133.854 28.5259 134.052 28.0451C134.25 27.551 134.394 26.8304 134.483 25.8833L134.943 25.8815C134.905 26.2416 134.887 26.7217 134.889 27.3217ZM143.368 15.4068C144.168 15.4036 144.848 15.5141 145.409 15.7385C145.97 15.9629 146.518 16.2806 147.053 16.6918C147.2 16.8112 147.327 16.8706 147.434 16.8702C147.701 16.8691 147.872 16.4684 147.949 15.6681L148.409 15.6662C148.359 16.5331 148.339 18.0665 148.348 20.2665L147.888 20.2684C147.738 19.4023 147.602 18.7829 147.48 18.41C147.359 18.0239 147.157 17.658 146.876 17.3125C146.474 16.7941 145.959 16.4096 145.331 16.1588C144.717 15.8947 144.049 15.7641 143.329 15.767C142.463 15.7706 141.704 16.0603 141.053 16.6363C140.415 17.2123 139.919 18.0343 139.563 19.1025C139.207 20.1573 139.033 21.398 139.038 22.8247C139.044 24.278 139.243 25.5238 139.634 26.5622C140.025 27.6007 140.561 28.3918 141.243 28.9357C141.939 29.4662 142.72 29.7296 143.587 29.7261C144.253 29.7233 144.899 29.594 145.525 29.3381C146.151 29.0822 146.643 28.7002 147 28.1921C147.266 27.8177 147.457 27.4169 147.576 26.9897C147.694 26.5626 147.804 25.9088 147.907 25.0283L148.367 25.0264C148.377 27.3198 148.41 28.9196 148.467 29.8261L148.007 29.828C147.965 29.4015 147.904 29.1017 147.823 28.9287C147.756 28.7423 147.656 28.6494 147.522 28.6499C147.416 28.6504 147.276 28.7043 147.103 28.8117C146.505 29.2408 145.933 29.5698 145.387 29.7987C144.841 30.0143 144.182 30.1236 143.408 30.1268C142.142 30.132 141.027 29.8499 140.065 29.2805C139.116 28.7111 138.372 27.8874 137.835 26.8096C137.31 25.7184 137.045 24.4195 137.039 22.9128C137.033 21.4462 137.294 20.1451 137.823 19.0096C138.365 17.874 139.114 16.991 140.072 16.3604C141.043 15.7297 142.141 15.4119 143.368 15.4068ZM161.559 15.6123C161.469 16.5594 161.426 17.4129 161.429 18.1729C161.432 18.8395 161.454 19.3861 161.496 19.8126L161.036 19.8145C160.925 18.7883 160.788 18.0288 160.626 17.5361C160.464 17.0301 160.183 16.6646 159.782 16.4396C159.381 16.2012 158.767 16.0838 157.94 16.0871L156.86 16.0916L156.907 27.4715C156.909 28.0315 156.964 28.4379 157.072 28.6908C157.18 28.9437 157.367 29.1163 157.634 29.2085C157.901 29.3007 158.335 29.359 158.935 29.3832L158.937 29.7832C158.243 29.746 157.263 29.73 155.996 29.7352C154.663 29.7407 153.676 29.7647 153.037 29.8074L153.035 29.4074C153.635 29.3782 154.068 29.3165 154.334 29.222C154.601 29.1276 154.786 28.9535 154.892 28.6997C154.998 28.446 155.049 28.0391 155.047 27.4791L155 16.0992L153.92 16.1036C153.094 16.107 152.481 16.2295 152.082 16.4712C151.683 16.6995 151.404 17.0673 151.246 17.5746C151.089 18.0686 150.958 18.8291 150.856 19.8562L150.396 19.8581C150.434 19.4313 150.452 18.8845 150.449 18.2179C150.446 17.4579 150.396 16.6047 150.299 15.6585C151.405 15.6939 153.286 15.7062 155.939 15.6953C158.579 15.6845 160.452 15.6568 161.559 15.6123Z" fill="black"/>
</svg>
