<svg width="44" height="44" viewBox="0 0 44 44" fill="none" xmlns="http://www.w3.org/2000/svg">
<path d="M38.0126 10.4468C40.2636 13.6597 41.5841 17.5714 41.5841 21.7902C41.5841 32.7216 32.7234 41.5822 21.792 41.5822C10.8606 41.5822 2 32.7216 2 21.792C2 10.8625 10.8606 2 21.792 2C25.6633 2 29.2734 3.1108 32.3244 5.03262" stroke="#212121" stroke-width="3" stroke-miterlimit="10" stroke-linecap="round" stroke-linejoin="round"/>
<path d="M37.2034 11.6607C39.1178 14.5683 40.2323 18.0496 40.2323 21.7921C40.2323 31.9769 31.9768 40.2324 21.792 40.2324C11.6073 40.2324 3.35168 31.9769 3.35168 21.7921C3.35168 11.6074 11.6073 3.35181 21.792 3.35181C25.0692 3.35181 28.146 4.20697 30.8126 5.70397" stroke="#212121" stroke-width="1.5" stroke-miterlimit="10" stroke-linecap="round" stroke-linejoin="round"/>
</svg>
