<svg width="113" height="16" viewBox="0 0 113 16" fill="none" xmlns="http://www.w3.org/2000/svg">
<path d="M13.02 0.559999C14.2467 0.559999 15.32 0.846666 16.24 1.42C17.1733 1.99333 17.8933 2.82667 18.4 3.92C18.9067 5 19.16 6.29333 19.16 7.8C19.16 9.26667 18.8933 10.5667 18.36 11.7C17.84 12.8333 17.1133 13.7133 16.18 14.34C15.2467 14.9667 14.1867 15.28 13 15.28C11.7867 15.28 10.72 15 9.8 14.44C8.88 13.8667 8.16 13.0467 7.64 11.98C7.13333 10.9133 6.87333 9.64 6.86 8.16H4.32V12.88C4.32 13.3867 4.36 13.7533 4.44 13.98C4.52 14.2067 4.66667 14.36 4.88 14.44C5.10667 14.52 5.46 14.5733 5.94 14.6V15C5.32667 14.96 4.48 14.94 3.4 14.94C2.25333 14.94 1.4 14.96 0.84 15V14.6C1.32 14.5733 1.66667 14.52 1.88 14.44C2.10667 14.36 2.26 14.2067 2.34 13.98C2.42 13.7533 2.46 13.3867 2.46 12.88V2.96C2.46 2.45333 2.42 2.08667 2.34 1.86C2.26 1.63333 2.10667 1.48 1.88 1.4C1.66667 1.32 1.32 1.26667 0.84 1.24V0.84C1.4 0.879999 2.25333 0.899999 3.4 0.899999C4.46667 0.899999 5.31333 0.879999 5.94 0.84V1.24C5.46 1.26667 5.10667 1.32 4.88 1.4C4.66667 1.48 4.52 1.63333 4.44 1.86C4.36 2.08667 4.32 2.45333 4.32 2.96V7.76H6.86C6.88667 6.34667 7.16667 5.09333 7.7 4C8.23333 2.90667 8.96 2.06 9.88 1.46C10.8133 0.859999 11.86 0.559999 13.02 0.559999ZM13.08 14.92C13.8933 14.92 14.6067 14.6267 15.22 14.04C15.8467 13.44 16.3267 12.6067 16.66 11.54C16.9933 10.4733 17.16 9.25333 17.16 7.88C17.16 6.49333 16.9733 5.27333 16.6 4.22C16.2267 3.16667 15.72 2.35333 15.08 1.78C14.44 1.20667 13.7267 0.919999 12.94 0.919999C12.1267 0.919999 11.4067 1.22 10.78 1.82C10.1667 2.40667 9.69333 3.23333 9.36 4.3C9.02667 5.36667 8.86 6.58667 8.86 7.96C8.86 9.34667 9.04667 10.5667 9.42 11.62C9.79333 12.6733 10.3 13.4867 10.94 14.06C11.58 14.6333 12.2933 14.92 13.08 14.92ZM24.3981 9.28V12.88C24.3981 13.3867 24.4515 13.7533 24.5581 13.98C24.6648 14.2067 24.8515 14.36 25.1181 14.44C25.3848 14.52 25.8181 14.5733 26.4181 14.6V15C25.7248 14.96 24.7448 14.94 23.4781 14.94C22.3315 14.94 21.4781 14.96 20.9181 15V14.6C21.3981 14.5733 21.7448 14.52 21.9581 14.44C22.1848 14.36 22.3381 14.2067 22.4181 13.98C22.4981 13.7533 22.5381 13.3867 22.5381 12.88V2.96C22.5381 2.45333 22.4981 2.08667 22.4181 1.86C22.3381 1.63333 22.1848 1.48 21.9581 1.4C21.7448 1.32 21.3981 1.26667 20.9181 1.24V0.84C21.4781 0.879999 22.2915 0.899999 23.3581 0.899999L25.5181 0.879999C25.7715 0.866666 26.0581 0.86 26.3781 0.86C27.9381 0.86 29.1315 1.22 29.9581 1.94C30.7848 2.64667 31.1981 3.6 31.1981 4.8C31.1981 5.53333 31.0315 6.24 30.6981 6.92C30.3781 7.58667 29.8248 8.14667 29.0381 8.6C28.2648 9.05333 27.2315 9.28 25.9381 9.28H24.3981ZM25.8781 1.24C25.4648 1.24 25.1515 1.28667 24.9381 1.38C24.7381 1.47333 24.5981 1.64 24.5181 1.88C24.4381 2.12 24.3981 2.48 24.3981 2.96V8.88H25.7381C27.0448 8.88 27.9448 8.53333 28.4381 7.84C28.9448 7.13333 29.1981 6.19333 29.1981 5.02C29.1981 3.72667 28.9381 2.77333 28.4181 2.16C27.9115 1.54667 27.0648 1.24 25.8781 1.24ZM46.4773 1.24C45.9973 1.26667 45.644 1.32 45.4173 1.4C45.204 1.48 45.0573 1.63333 44.9773 1.86C44.8973 2.08667 44.8573 2.45333 44.8573 2.96V12.88C44.8573 13.3867 44.8973 13.7533 44.9773 13.98C45.0573 14.2067 45.204 14.36 45.4173 14.44C45.644 14.52 45.9973 14.5733 46.4773 14.6V15C45.9173 14.96 45.064 14.94 43.9173 14.94C42.8507 14.94 42.004 14.96 41.3773 15V14.6C41.8573 14.5733 42.204 14.52 42.4173 14.44C42.644 14.36 42.7973 14.2067 42.8773 13.98C42.9573 13.7533 42.9973 13.3867 42.9973 12.88V3.42L36.0973 13.2C36.1107 13.5867 36.164 13.88 36.2573 14.08C36.3507 14.2667 36.504 14.3933 36.7173 14.46C36.9307 14.5267 37.264 14.5733 37.7173 14.6V15C37.104 14.96 36.2573 14.94 35.1773 14.94C34.0307 14.94 33.1773 14.96 32.6173 15V14.6C33.0973 14.5733 33.444 14.52 33.6573 14.44C33.884 14.36 34.0373 14.2067 34.1173 13.98C34.1973 13.7533 34.2373 13.3867 34.2373 12.88V2.96C34.2373 2.45333 34.1973 2.08667 34.1173 1.86C34.0373 1.63333 33.884 1.48 33.6573 1.4C33.444 1.32 33.0973 1.26667 32.6173 1.24V0.84C33.1773 0.879999 34.0307 0.899999 35.1773 0.899999C36.244 0.899999 37.0907 0.879999 37.7173 0.84V1.24C37.2373 1.26667 36.884 1.32 36.6573 1.4C36.444 1.48 36.2973 1.63333 36.2173 1.86C36.1373 2.08667 36.0973 2.45333 36.0973 2.96V12.42L42.9973 2.64C42.984 2.25333 42.9307 1.96667 42.8373 1.78C42.744 1.58 42.5907 1.44667 42.3773 1.38C42.164 1.31333 41.8307 1.26667 41.3773 1.24V0.84C42.004 0.879999 42.8507 0.899999 43.9173 0.899999C45.064 0.899999 45.9173 0.879999 46.4773 0.84V1.24ZM61.6242 1.24C61.1442 1.26667 60.7909 1.32 60.5642 1.4C60.3509 1.48 60.2042 1.63333 60.1242 1.86C60.0442 2.08667 60.0042 2.45333 60.0042 2.96V12.88C60.0042 13.3867 60.0442 13.7533 60.1242 13.98C60.2042 14.2067 60.3509 14.36 60.5642 14.44C60.7909 14.52 61.1442 14.5733 61.6242 14.6V15C61.0642 14.96 60.2109 14.94 59.0642 14.94C57.9842 14.94 57.1376 14.96 56.5242 15V14.6C57.0042 14.5733 57.3509 14.52 57.5642 14.44C57.7909 14.36 57.9442 14.2067 58.0242 13.98C58.1042 13.7533 58.1442 13.3867 58.1442 12.88V8.08H51.6442V12.88C51.6442 13.3867 51.6842 13.7533 51.7642 13.98C51.8442 14.2067 51.9909 14.36 52.2042 14.44C52.4309 14.52 52.7842 14.5733 53.2642 14.6V15C52.6509 14.96 51.8042 14.94 50.7242 14.94C49.5776 14.94 48.7242 14.96 48.1642 15V14.6C48.6442 14.5733 48.9909 14.52 49.2042 14.44C49.4309 14.36 49.5842 14.2067 49.6642 13.98C49.7442 13.7533 49.7842 13.3867 49.7842 12.88V2.96C49.7842 2.45333 49.7442 2.08667 49.6642 1.86C49.5842 1.63333 49.4309 1.48 49.2042 1.4C48.9909 1.32 48.6442 1.26667 48.1642 1.24V0.84C48.7242 0.879999 49.5776 0.899999 50.7242 0.899999C51.7909 0.899999 52.6376 0.879999 53.2642 0.84V1.24C52.7842 1.26667 52.4309 1.32 52.2042 1.4C51.9909 1.48 51.8442 1.63333 51.7642 1.86C51.6842 2.08667 51.6442 2.45333 51.6442 2.96V7.68H58.1442V2.96C58.1442 2.45333 58.1042 2.08667 58.0242 1.86C57.9442 1.63333 57.7909 1.48 57.5642 1.4C57.3509 1.32 57.0042 1.26667 56.5242 1.24V0.84C57.1376 0.879999 57.9842 0.899999 59.0642 0.899999C60.2109 0.899999 61.0642 0.879999 61.6242 0.84V1.24ZM69.9409 7.52C71.4076 7.72 72.4543 8.14667 73.0809 8.8C73.7076 9.44 74.0209 10.2133 74.0209 11.12C74.0209 11.88 73.8276 12.5533 73.4409 13.14C73.0543 13.7267 72.5009 14.1867 71.7809 14.52C71.0609 14.84 70.2076 15 69.2209 15C68.8609 15 68.5543 14.9933 68.3009 14.98C67.4476 14.9533 66.6076 14.94 65.7809 14.94C64.6876 14.94 63.8609 14.96 63.3009 15V14.6C63.7809 14.5733 64.1276 14.52 64.3409 14.44C64.5676 14.36 64.7209 14.2067 64.8009 13.98C64.8809 13.7533 64.9209 13.3867 64.9209 12.88V2.96C64.9209 2.45333 64.8809 2.08667 64.8009 1.86C64.7209 1.63333 64.5676 1.48 64.3409 1.4C64.1276 1.32 63.7809 1.26667 63.3009 1.24V0.84C63.8609 0.879999 64.6743 0.899999 65.7409 0.899999L67.9009 0.879999C68.1543 0.866666 68.4409 0.86 68.7609 0.86C70.1209 0.86 71.1609 1.14667 71.8809 1.72C72.6143 2.29333 72.9809 3.05333 72.9809 4C72.9809 4.77333 72.7343 5.46667 72.2409 6.08C71.7609 6.69333 70.9943 7.16 69.9409 7.48V7.52ZM68.2609 1.24C67.8476 1.24 67.5343 1.28667 67.3209 1.38C67.1209 1.47333 66.9809 1.64 66.9009 1.88C66.8209 2.12 66.7809 2.48 66.7809 2.96V7.48H68.1209C69.2143 7.48 69.9743 7.18667 70.4009 6.6C70.8409 6 71.0609 5.20667 71.0609 4.22C71.0609 3.22 70.8409 2.47333 70.4009 1.98C69.9609 1.48667 69.2476 1.24 68.2609 1.24ZM68.2809 14.54C70.7743 14.54 72.0209 13.3733 72.0209 11.04C72.0209 9.98667 71.7343 9.18667 71.1609 8.64C70.6009 8.09333 69.7009 7.82 68.4609 7.82H66.7809V12.88C66.7809 13.36 66.8209 13.7133 66.9009 13.94C66.9809 14.1667 67.1209 14.3267 67.3209 14.42C67.5343 14.5 67.8543 14.54 68.2809 14.54ZM85.8652 12.44C85.8652 13.2 85.9118 14.0533 86.0052 15C85.0985 14.96 83.5718 14.94 81.4252 14.94C78.8652 14.94 76.9318 14.96 75.6252 15V14.6C76.1052 14.5733 76.4518 14.52 76.6652 14.44C76.8918 14.36 77.0452 14.2067 77.1252 13.98C77.2052 13.7533 77.2452 13.3867 77.2452 12.88V2.96C77.2452 2.45333 77.2052 2.08667 77.1252 1.86C77.0452 1.63333 76.8918 1.48 76.6652 1.4C76.4518 1.32 76.1052 1.26667 75.6252 1.24V0.84C76.9318 0.879999 78.8652 0.899999 81.4252 0.899999C83.3852 0.899999 84.7785 0.879999 85.6052 0.84C85.5118 1.72 85.4652 2.50667 85.4652 3.2C85.4652 3.72 85.4852 4.13333 85.5252 4.44H85.0652C84.9718 3.57333 84.8518 2.93333 84.7052 2.52C84.5585 2.09333 84.3118 1.78667 83.9652 1.6C83.6185 1.4 83.0918 1.3 82.3852 1.3H80.7252C80.2452 1.3 79.8918 1.34 79.6652 1.42C79.4518 1.48667 79.3052 1.63333 79.2252 1.86C79.1452 2.08667 79.1052 2.45333 79.1052 2.96V7.68H80.4252C80.8918 7.68 81.2518 7.57333 81.5052 7.36C81.7585 7.13333 81.9252 6.87333 82.0052 6.58C82.0985 6.27333 82.1718 5.89333 82.2252 5.44L82.2852 5.04H82.7452C82.7052 5.6 82.6852 6.22667 82.6852 6.92V7.88C82.6852 8.56 82.7252 9.50667 82.8052 10.72H82.3452C82.3318 10.6267 82.2918 10.3067 82.2252 9.76C82.1585 9.2 81.9718 8.78 81.6652 8.5C81.3718 8.22 80.9585 8.08 80.4252 8.08H79.1052V12.88C79.1052 13.3867 79.1452 13.7533 79.2252 13.98C79.3052 14.2067 79.4518 14.36 79.6652 14.44C79.8918 14.5067 80.2452 14.54 80.7252 14.54H82.1852C83.0118 14.54 83.6385 14.4333 84.0652 14.22C84.5052 13.9933 84.8252 13.64 85.0252 13.16C85.2252 12.6667 85.3718 11.9467 85.4652 11H85.9252C85.8852 11.36 85.8652 11.84 85.8652 12.44ZM94.3927 0.559999C95.1927 0.559999 95.8727 0.673332 96.4327 0.899999C96.9927 1.12667 97.5393 1.44667 98.0727 1.86C98.2193 1.98 98.346 2.04 98.4527 2.04C98.7193 2.04 98.8927 1.64 98.9727 0.84H99.4327C99.3793 1.70667 99.3527 3.24 99.3527 5.44H98.8927C98.746 4.57333 98.6127 3.95333 98.4927 3.58C98.3727 3.19333 98.1727 2.82667 97.8927 2.48C97.4927 1.96 96.9793 1.57333 96.3527 1.32C95.7393 1.05333 95.0727 0.919999 94.3527 0.919999C93.486 0.919999 92.726 1.20667 92.0727 1.78C91.4327 2.35333 90.9327 3.17333 90.5727 4.24C90.2127 5.29333 90.0327 6.53333 90.0327 7.96C90.0327 9.41333 90.226 10.66 90.6127 11.7C90.9993 12.74 91.5327 13.5333 92.2127 14.08C92.906 14.6133 93.686 14.88 94.5527 14.88C95.2193 14.88 95.866 14.7533 96.4927 14.5C97.1193 14.2467 97.6127 13.8667 97.9727 13.36C98.2393 12.9867 98.4327 12.5867 98.5527 12.16C98.6727 11.7333 98.786 11.08 98.8927 10.2H99.3527C99.3527 12.4933 99.3793 14.0933 99.4327 15H98.9727C98.9327 14.5733 98.8727 14.2733 98.7927 14.1C98.726 13.9133 98.626 13.82 98.4927 13.82C98.386 13.82 98.246 13.8733 98.0727 13.98C97.4727 14.4067 96.8993 14.7333 96.3527 14.96C95.806 15.1733 95.146 15.28 94.3727 15.28C93.106 15.28 91.9927 14.9933 91.0327 14.42C90.086 13.8467 89.346 13.02 88.8127 11.94C88.2927 10.8467 88.0327 9.54667 88.0327 8.04C88.0327 6.57333 88.2993 5.27333 88.8327 4.14C89.3793 3.00667 90.1327 2.12667 91.0927 1.5C92.066 0.873332 93.166 0.559999 94.3927 0.559999ZM112.582 0.84C112.489 1.78667 112.442 2.64 112.442 3.4C112.442 4.06667 112.462 4.61333 112.502 5.04H112.042C111.936 4.01333 111.802 3.25333 111.642 2.76C111.482 2.25333 111.202 1.88667 110.802 1.66C110.402 1.42 109.789 1.3 108.962 1.3H107.882V12.68C107.882 13.24 107.936 13.6467 108.042 13.9C108.149 14.1533 108.336 14.3267 108.602 14.42C108.869 14.5133 109.302 14.5733 109.902 14.6V15C109.209 14.96 108.229 14.94 106.962 14.94C105.629 14.94 104.642 14.96 104.002 15V14.6C104.602 14.5733 105.036 14.5133 105.302 14.42C105.569 14.3267 105.756 14.1533 105.862 13.9C105.969 13.6467 106.022 13.24 106.022 12.68V1.3H104.942C104.116 1.3 103.502 1.42 103.102 1.66C102.702 1.88667 102.422 2.25333 102.262 2.76C102.102 3.25333 101.969 4.01333 101.862 5.04H101.402C101.442 4.61333 101.462 4.06667 101.462 3.4C101.462 2.64 101.416 1.78667 101.322 0.84C102.429 0.879999 104.309 0.899999 106.962 0.899999C109.602 0.899999 111.476 0.879999 112.582 0.84Z" fill="black"/>
</svg>
